<svg width="58" height="58" viewBox="0 0 58 58" fill="none" xmlns="http://www.w3.org/2000/svg">
<path d="M47.0564 24.1667V47.0566H10.9432V10.9434H33.9243V7.25H12.1312C9.47285 7.25 7.29785 9.425 7.29785 12.0833V45.9167C7.29785 48.575 9.47285 50.75 12.1312 50.75H45.9645C48.6228 50.75 50.7979 48.575 50.7979 45.9167V24.1667H47.0564ZM41.0828 24.1667L43.3545 19.1883L48.3328 16.9167L43.3545 14.645L41.0828 9.66667L38.8112 14.645L33.8328 16.9167L38.8112 19.1883L41.0828 24.1667ZM32.0203 25.9792L28.9995 19.3333L25.9787 25.9792L19.3329 29L25.9787 32.0208L28.9995 38.6667L32.0203 32.0208L38.6662 29L32.0203 25.9792Z" fill="#052368"/>
</svg>
